<?xml version="1.0" encoding="UTF-8"?>
<svg version="1.1" xmlns="http://www.w3.org/2000/svg" width="297" height="297">
<path d="M0 0 C98.01 0 196.02 0 297 0 C297 98.01 297 196.02 297 297 C198.99 297 100.98 297 0 297 C0 198.99 0 100.98 0 0 Z " fill="#010101" transform="translate(0,0)"/>
<path d="M0 0 C5.94 0 11.88 0 18 0 C18.53625 1.65 19.0725 3.3 19.625 5 C23.07990462 14.46449223 28.84033171 21.30328425 37.75 26.1875 C45.51242589 29.77472476 53.73970111 30.30959065 62.1796875 30.30078125 C63.58071213 30.30720894 63.58071213 30.30720894 65.01004028 30.31376648 C66.97136633 30.31946831 68.9327135 30.32004096 70.89404297 30.31567383 C73.86072605 30.3125152 76.82640851 30.33602121 79.79296875 30.36132812 C94.69507765 30.4119501 109.0224491 29.85329414 120.2578125 18.7734375 C125.25477524 12.96515977 127.75601107 7.29296403 130 0 C135.61 0 141.22 0 147 0 C147 70.95 147 141.9 147 215 C98.49 215 49.98 215 0 215 C0 144.05 0 73.1 0 0 Z " fill="#FDFDFD" transform="translate(76,49)"/>
<path d="M0 0 C46.2 0 92.4 0 140 0 C140 0.66 140 1.32 140 2 C139.39414063 2.18433594 138.78828125 2.36867187 138.1640625 2.55859375 C128.32792089 5.963412 120.87073674 12.20208624 116.03515625 21.46875 C115.06362829 23.84441082 114.24064006 26.22205429 113.43530273 28.65820312 C113.1662059 29.47067505 112.89710907 30.28314697 112.61985779 31.12023926 C112.41530472 31.7405603 112.21075165 32.36088135 112 33 C111.34124878 33.00586624 110.68249756 33.01173248 110.00378418 33.01777649 C103.12496612 33.08189039 96.24660812 33.16635655 89.36816406 33.26245117 C86.80377278 33.29563094 84.23930969 33.32368432 81.67480469 33.34643555 C77.98080958 33.3801085 74.2874684 33.43243307 70.59375 33.48828125 C69.4538562 33.49467117 68.3139624 33.5010611 67.13952637 33.50764465 C57.10011315 33.65655481 57.10011315 33.65655481 48.48327637 38.38056946 C45.05936782 42.3052404 42.75194029 45.89917206 42.74552441 51.13992691 C42.73677612 52.37236976 42.73677612 52.37236976 42.72785109 53.62971044 C42.73352008 54.97560722 42.73352008 54.97560722 42.73930359 56.34869385 C42.73547804 57.30610183 42.73165249 58.2635098 42.72771102 59.24993014 C42.71737072 62.46648021 42.72137519 65.68285212 42.7253418 68.89941406 C42.72099582 71.20226711 42.71581306 73.5051187 42.70985413 75.80796814 C42.69643864 82.07048163 42.69588844 88.33293487 42.69841743 94.59545994 C42.6994857 99.82155684 42.69460731 105.04764148 42.689812 110.27373576 C42.67807203 123.30970233 42.67894686 136.34563453 42.68536881 149.38160333 C42.69053463 160.69563348 42.67929213 172.00957744 42.66027059 183.32359055 C42.64088267 194.94481274 42.63292934 206.5659905 42.63639385 218.18722892 C42.63820748 224.7099761 42.63556268 231.2326444 42.62167931 237.75537872 C42.60910808 243.89163511 42.61103858 250.02771913 42.62409019 256.16397285 C42.62645728 258.41497162 42.6237166 260.66598249 42.61546707 262.91696739 C42.60500904 265.99263547 42.6130932 269.06772423 42.6257782 272.14337158 C42.61471677 273.47588404 42.61471677 273.47588404 42.60343188 274.83531594 C42.65650222 280.96275962 43.35883659 287.03110098 47.60546875 291.8046875 C48.12753906 292.15789062 48.64960937 292.51109375 49.1875 292.875 C50.115625 293.57625 51.04375 294.2775 52 295 C52 295.66 52 296.32 52 297 C34.84 297 17.68 297 0 297 C0 198.99 0 100.98 0 0 Z " fill="#FDFDFD" transform="translate(0,0)"/>
<path d="M0 0 C45.21 0 90.42 0 137 0 C137 98.01 137 196.02 137 297 C120.5 297 104 297 87 297 C87.66 295.68 88.32 294.36 89 293 C89.66 293 90.32 293 91 293 C94.53687897 286.43151048 95.29290832 280.74638039 95.26742554 273.41752625 C95.27422221 271.97990935 95.27422221 271.97990935 95.28115618 270.5132497 C95.29380543 267.30525206 95.29217946 264.09742409 95.29052734 260.8894043 C95.29651225 258.58787823 95.30331771 256.28635418 95.31088257 253.98483276 C95.32855343 247.73477236 95.33323841 241.48476672 95.33451414 235.23468375 C95.33593567 231.32925392 95.3402053 227.42383801 95.34550858 223.51841164 C95.36305743 210.59512314 95.37234838 197.67187354 95.37084763 184.74857368 C95.37072776 183.70429314 95.37072776 183.70429314 95.37060547 182.63891602 C95.37048283 181.59335501 95.37048283 181.59335501 95.37035771 180.52667157 C95.36954498 169.23282079 95.38868067 157.93910343 95.4168822 146.64529123 C95.44563525 135.03868885 95.45905519 123.43215761 95.45769465 111.82551891 C95.45718485 105.31335878 95.46287814 98.80134967 95.48405075 92.28922081 C95.50342306 86.1635683 95.50356418 80.03821102 95.48901749 73.91254807 C95.48692708 71.66680152 95.49164405 69.42103653 95.5037384 67.17532158 C95.51920349 64.10434334 95.50987375 61.03438147 95.49447632 57.96342468 C95.50476344 57.07936012 95.51505057 56.19529557 95.52564943 55.28444117 C95.45874647 49.22655773 94.22477212 44.19284707 91 39 C86.33703496 35.19349792 82.63319677 33.89145076 76.70239258 33.79467773 C75.08105156 33.7647599 75.08105156 33.7647599 73.42695618 33.73423767 C71.67840584 33.70916893 71.67840584 33.70916893 69.89453125 33.68359375 C68.70018967 33.66281265 67.50584808 33.64203156 66.27531433 33.62062073 C62.45443557 33.55515724 58.63348724 33.4962549 54.8125 33.4375 C52.22460214 33.39431176 49.63671135 33.35069737 47.04882812 33.30664062 C40.69929261 33.19947908 34.34968766 33.0977066 28 33 C27.67169189 32.11304443 27.34338379 31.22608887 27.00512695 30.31225586 C26.56644287 29.14573486 26.12775879 27.97921387 25.67578125 26.77734375 C25.24434814 25.62226318 24.81291504 24.46718262 24.3684082 23.27709961 C19.99336953 12.79964304 11.93449612 6.92210481 1.6875 2.6640625 C1.130625 2.44492187 0.57375 2.22578125 0 2 C0 1.34 0 0.68 0 0 Z " fill="#FDFDFD" transform="translate(160,0)"/>
<path d="M0 0 C16.83 0 33.66 0 51 0 C51 5.28 51 10.56 51 16 C34.17 16 17.34 16 0 16 C0 10.72 0 5.44 0 0 Z " fill="#010101" transform="translate(99,205)"/>
<path d="M0 0 C16.83 0 33.66 0 51 0 C51 5.28 51 10.56 51 16 C34.17 16 17.34 16 0 16 C0 10.72 0 5.44 0 0 Z " fill="#010101" transform="translate(99,157)"/>
<path d="M0 0 C16.83 0 33.66 0 51 0 C51 5.28 51 10.56 51 16 C34.17 16 17.34 16 0 16 C0 10.72 0 5.44 0 0 Z " fill="#010101" transform="translate(99,109)"/>
<path d="M0 0 C3.45201639 1.47721422 5.64961936 3.43794001 8.25 6.125 C8.95640625 6.84945312 9.6628125 7.57390625 10.390625 8.3203125 C10.92171875 8.87460938 11.4528125 9.42890625 12 10 C9.06279652 16.3616208 3.96244556 21.1557079 -1 26 C-2.37635401 27.37364465 -3.75125399 28.74874715 -5.125 30.125 C-7.41666667 32.41666667 -9.70833333 34.70833333 -12 37 C-14.08525254 35.25224498 -16.16823077 33.50189573 -18.25 31.75 C-18.83652344 31.25886719 -19.42304688 30.76773438 -20.02734375 30.26171875 C-20.88779297 29.53662109 -20.88779297 29.53662109 -21.765625 28.796875 C-22.55114746 28.13703613 -22.55114746 28.13703613 -23.35253906 27.46386719 C-25.31056536 25.72404418 -27.1478592 23.8521408 -29 22 C-26.03 18.37 -23.06 14.74 -20 11 C-18.68 11.66 -17.36 12.32 -16 13 C-14.6757713 13.36784131 -13.34386088 13.71202981 -12 14 C-10.18472893 12.04417252 -8.37271109 10.08550123 -6.5625 8.125 C-6.04623047 7.56941406 -5.52996094 7.01382813 -4.99804688 6.44140625 C-2.17895264 3.45250685 -2.17895264 3.45250685 0 0 Z " fill="#050505" transform="translate(189,191)"/>
<path d="M0 0 C3.45201639 1.47721422 5.64961936 3.43794001 8.25 6.125 C8.95640625 6.84945312 9.6628125 7.57390625 10.390625 8.3203125 C10.92171875 8.87460938 11.4528125 9.42890625 12 10 C9.06279652 16.3616208 3.96244556 21.1557079 -1 26 C-2.37635401 27.37364465 -3.75125399 28.74874715 -5.125 30.125 C-7.41666667 32.41666667 -9.70833333 34.70833333 -12 37 C-14.08525254 35.25224498 -16.16823077 33.50189573 -18.25 31.75 C-18.83652344 31.25886719 -19.42304688 30.76773438 -20.02734375 30.26171875 C-20.88779297 29.53662109 -20.88779297 29.53662109 -21.765625 28.796875 C-22.55114746 28.13703613 -22.55114746 28.13703613 -23.35253906 27.46386719 C-25.31056536 25.72404418 -27.1478592 23.8521408 -29 22 C-26.03 18.37 -23.06 14.74 -20 11 C-18.68 11.66 -17.36 12.32 -16 13 C-14.6757713 13.36784131 -13.34386088 13.71202981 -12 14 C-10.18472893 12.04417252 -8.37271109 10.08550123 -6.5625 8.125 C-6.04623047 7.56941406 -5.52996094 7.01382813 -4.99804688 6.44140625 C-2.17895264 3.45250685 -2.17895264 3.45250685 0 0 Z " fill="#050505" transform="translate(189,143)"/>
<path d="M0 0 C3.45201639 1.47721422 5.64961936 3.43794001 8.25 6.125 C8.95640625 6.84945312 9.6628125 7.57390625 10.390625 8.3203125 C10.92171875 8.87460938 11.4528125 9.42890625 12 10 C9.06279652 16.3616208 3.96244556 21.1557079 -1 26 C-2.37635401 27.37364465 -3.75125399 28.74874715 -5.125 30.125 C-7.41666667 32.41666667 -9.70833333 34.70833333 -12 37 C-14.08525254 35.25224498 -16.16823077 33.50189573 -18.25 31.75 C-18.83652344 31.25886719 -19.42304688 30.76773438 -20.02734375 30.26171875 C-20.88779297 29.53662109 -20.88779297 29.53662109 -21.765625 28.796875 C-22.55114746 28.13703613 -22.55114746 28.13703613 -23.35253906 27.46386719 C-25.31056536 25.72404418 -27.1478592 23.8521408 -29 22 C-26.03 18.37 -23.06 14.74 -20 11 C-18.68 11.66 -17.36 12.32 -16 13 C-14.6757713 13.36784131 -13.34386088 13.71202981 -12 14 C-10.18472893 12.04417252 -8.37271109 10.08550123 -6.5625 8.125 C-6.04623047 7.56941406 -5.52996094 7.01382813 -4.99804688 6.44140625 C-2.17895264 3.45250685 -2.17895264 3.45250685 0 0 Z " fill="#050505" transform="translate(189,95)"/>
<path d="M0 0 C5.85018538 3.326576 9.65320224 6.4767556 12.1875 12.8125 C12.1875 13.4725 12.1875 14.1325 12.1875 14.8125 C-1.6725 14.8125 -15.5325 14.8125 -29.8125 14.8125 C-27.5677458 8.07823739 -25.26130418 3.97225489 -19.1875 0.4375 C-12.91597541 -2.39594873 -6.45430174 -2.01035628 0 0 Z " fill="#F8F8F8" transform="translate(158.8125,18.1875)"/>
<path d="M0 0 C0.99 1.32 1.98 2.64 3 4 C2.01 4.495 2.01 4.495 1 5 C0.01 6.485 0.01 6.485 -1 8 C-2 8 -3 8 -4 8 C-4.33 8.99 -4.66 9.98 -5 11 C-5.99 11.495 -5.99 11.495 -7 12 C-6.01 12.99 -5.02 13.98 -4 15 C-6.25 15.75 -6.25 15.75 -9 16 C-11.3125 14.0625 -11.3125 14.0625 -13 12 C-12.01 11.67 -11.02 11.34 -10 11 C-8.21744992 9.24118094 -8.21744992 9.24118094 -6.5 7.125 C-4.41421775 4.64584653 -2.32698713 2.2560424 0 0 Z " fill="#F7F7F7" transform="translate(188,216)"/>
<path d="M0 0 C0.99 1.32 1.98 2.64 3 4 C2.01 4.495 2.01 4.495 1 5 C0.01 6.485 0.01 6.485 -1 8 C-2 8 -3 8 -4 8 C-4.33 8.99 -4.66 9.98 -5 11 C-5.99 11.495 -5.99 11.495 -7 12 C-6.01 12.99 -5.02 13.98 -4 15 C-6.25 15.75 -6.25 15.75 -9 16 C-11.3125 14.0625 -11.3125 14.0625 -13 12 C-12.01 11.67 -11.02 11.34 -10 11 C-8.21744992 9.24118094 -8.21744992 9.24118094 -6.5 7.125 C-4.41421775 4.64584653 -2.32698713 2.2560424 0 0 Z " fill="#F7F7F7" transform="translate(188,168)"/>
<path d="M0 0 C0.99 1.32 1.98 2.64 3 4 C2.01 4.495 2.01 4.495 1 5 C0.01 6.485 0.01 6.485 -1 8 C-2 8 -3 8 -4 8 C-4.33 8.99 -4.66 9.98 -5 11 C-5.99 11.495 -5.99 11.495 -7 12 C-6.01 12.99 -5.02 13.98 -4 15 C-6.25 15.75 -6.25 15.75 -9 16 C-11.3125 14.0625 -11.3125 14.0625 -13 12 C-12.01 11.67 -11.02 11.34 -10 11 C-8.21744992 9.24118094 -8.21744992 9.24118094 -6.5 7.125 C-4.41421775 4.64584653 -2.32698713 2.2560424 0 0 Z " fill="#F7F7F7" transform="translate(188,120)"/>
<path d="M0 0 C1.65 0 3.3 0 5 0 C5.74609375 1.734375 5.74609375 1.734375 6 4 C4.34765625 6.140625 4.34765625 6.140625 2.0625 8.25 C1.31097656 8.95640625 0.55945313 9.6628125 -0.21484375 10.390625 C-0.80394531 10.92171875 -1.39304687 11.4528125 -2 12 C-2.99 11.34 -3.98 10.68 -5 10 C-4.34 10 -3.68 10 -3 10 C-3.33 8.68 -3.66 7.36 -4 6 C-3.01 5.34 -2.02 4.68 -1 4 C-0.27617533 1.94074861 -0.27617533 1.94074861 0 0 Z " fill="#EFEFEF" transform="translate(121,4)"/>
<path d="M0 0 C1.32 0.66 2.64 1.32 4 2 C3.2884375 2.61875 3.2884375 2.61875 2.5625 3.25 C0.83733482 5.182185 0.43415125 6.48192275 0 9 C-0.78375 8.95875 -1.5675 8.9175 -2.375 8.875 C-5.16116119 8.71271266 -5.16116119 8.71271266 -7 11 C-7 7.22089522 -6.00296038 6.53893899 -3.5 3.8125 C-2.8503125 3.09707031 -2.200625 2.38164062 -1.53125 1.64453125 C-1.0259375 1.10183594 -0.520625 0.55914062 0 0 Z " fill="#171717" transform="translate(189,191)"/>
<path d="M0 0 C1.32 0.66 2.64 1.32 4 2 C3.2884375 2.61875 3.2884375 2.61875 2.5625 3.25 C0.83733482 5.182185 0.43415125 6.48192275 0 9 C-0.78375 8.95875 -1.5675 8.9175 -2.375 8.875 C-5.16116119 8.71271266 -5.16116119 8.71271266 -7 11 C-7 7.22089522 -6.00296038 6.53893899 -3.5 3.8125 C-2.8503125 3.09707031 -2.200625 2.38164062 -1.53125 1.64453125 C-1.0259375 1.10183594 -0.520625 0.55914062 0 0 Z " fill="#171717" transform="translate(189,143)"/>
<path d="M0 0 C1.32 0.66 2.64 1.32 4 2 C3.2884375 2.61875 3.2884375 2.61875 2.5625 3.25 C0.83733482 5.182185 0.43415125 6.48192275 0 9 C-0.78375 8.95875 -1.5675 8.9175 -2.375 8.875 C-5.16116119 8.71271266 -5.16116119 8.71271266 -7 11 C-7 7.22089522 -6.00296038 6.53893899 -3.5 3.8125 C-2.8503125 3.09707031 -2.200625 2.38164063 -1.53125 1.64453125 C-1.0259375 1.10183594 -0.520625 0.55914062 0 0 Z " fill="#171717" transform="translate(189,95)"/>
<path d="M0 0 C1.65 0.33 3.3 0.66 5 1 C3.50902342 4.7952131 1.24299151 6.61042731 -2 9 C-2.33 8.34 -2.66 7.68 -3 7 C-2.34 7 -1.68 7 -1 7 C-1.20625 6.401875 -1.4125 5.80375 -1.625 5.1875 C-2 3 -2 3 0 0 Z " fill="#0B0B0B" transform="translate(196,200)"/>
<path d="M0 0 C1.65 0.33 3.3 0.66 5 1 C3.50902342 4.7952131 1.24299151 6.61042731 -2 9 C-2.33 8.34 -2.66 7.68 -3 7 C-2.34 7 -1.68 7 -1 7 C-1.20625 6.401875 -1.4125 5.80375 -1.625 5.1875 C-2 3 -2 3 0 0 Z " fill="#0B0B0B" transform="translate(196,152)"/>
<path d="M0 0 C1.65 0.33 3.3 0.66 5 1 C3.50902342 4.7952131 1.24299151 6.61042731 -2 9 C-2.33 8.34 -2.66 7.68 -3 7 C-2.34 7 -1.68 7 -1 7 C-1.20625 6.401875 -1.4125 5.80375 -1.625 5.1875 C-2 3 -2 3 0 0 Z " fill="#0B0B0B" transform="translate(196,104)"/>
<path d="M0 0 C1.32 0.66 2.64 1.32 4 2 C4.66 1.34 5.32 0.68 6 0 C8.125 0.375 8.125 0.375 10 1 C4.5 6 4.5 6 0 6 C-1.125 2.25 -1.125 2.25 0 0 Z " fill="#0D0D0D" transform="translate(129,19)"/>
<path d="M0 0 C0.99 1.32 1.98 2.64 3 4 C2.01 4.495 2.01 4.495 1 5 C0.01 6.485 0.01 6.485 -1 8 C-1.66 7.34 -2.32 6.68 -3 6 C-4.32 7.32 -5.64 8.64 -7 10 C-7.66 9.67 -8.32 9.34 -9 9 C-6.03 6.03 -3.06 3.06 0 0 Z " fill="#E3E3E3" transform="translate(188,216)"/>
<path d="M0 0 C0.99 1.32 1.98 2.64 3 4 C2.01 4.495 2.01 4.495 1 5 C0.01 6.485 0.01 6.485 -1 8 C-1.66 7.34 -2.32 6.68 -3 6 C-4.32 7.32 -5.64 8.64 -7 10 C-7.66 9.67 -8.32 9.34 -9 9 C-6.03 6.03 -3.06 3.06 0 0 Z " fill="#E3E3E3" transform="translate(188,168)"/>
<path d="M0 0 C0.99 1.32 1.98 2.64 3 4 C2.01 4.495 2.01 4.495 1 5 C0.01 6.485 0.01 6.485 -1 8 C-1.66 7.34 -2.32 6.68 -3 6 C-4.32 7.32 -5.64 8.64 -7 10 C-7.66 9.67 -8.32 9.34 -9 9 C-6.03 6.03 -3.06 3.06 0 0 Z " fill="#E3E3E3" transform="translate(188,120)"/>
<path d="M0 0 C1.32 0.33 2.64 0.66 4 1 C4 3.66666667 4 6.33333333 4 9 C0.31197956 7.77065985 -0.72356973 6.06140622 -3 3 C-2.01 2.67 -1.02 2.34 0 2 C0 1.34 0 0.68 0 0 Z " fill="#F0F0F0" transform="translate(251,33)"/>
<path d="M0 0 C6.75 0.75 6.75 0.75 9 3 C7.68 3.33 6.36 3.66 5 4 C6.32 4.66 7.64 5.32 9 6 C7.25 6.75 7.25 6.75 5 7 C2.22666082 4.78132865 1.13126558 3.39379675 0 0 Z " fill="#161616" transform="translate(238,33)"/>
<path d="M0 0 C2.46800047 1.15173355 4.04783565 2.04783565 6 4 C5.01 4 4.02 4 3 4 C1.31763529 4.62599617 -0.3523962 5.28752268 -2 6 C-2.33 5.01 -2.66 4.02 -3 3 C-2.01 2.01 -1.02 1.02 0 0 Z " fill="#101010" transform="translate(169,202)"/>
<path d="M0 0 C2.46800047 1.15173355 4.04783565 2.04783565 6 4 C5.01 4 4.02 4 3 4 C1.31763529 4.62599617 -0.3523962 5.28752268 -2 6 C-2.33 5.01 -2.66 4.02 -3 3 C-2.01 2.01 -1.02 1.02 0 0 Z " fill="#101010" transform="translate(169,154)"/>
<path d="M0 0 C2.46800047 1.15173355 4.04783565 2.04783565 6 4 C5.01 4 4.02 4 3 4 C1.31763529 4.62599617 -0.3523962 5.28752268 -2 6 C-2.33 5.01 -2.66 4.02 -3 3 C-2.01 2.01 -1.02 1.02 0 0 Z " fill="#101010" transform="translate(169,106)"/>
<path d="M0 0 C0.66 0.33 1.32 0.66 2 1 C0.52307692 5.67692308 0.52307692 5.67692308 -2.125 7.3125 C-2.74375 7.539375 -3.3625 7.76625 -4 8 C-4.33 7.34 -4.66 6.68 -5 6 C-5.66 6.66 -6.32 7.32 -7 8 C-7.33 7.01 -7.66 6.02 -8 5 C-6.71475739 4.13619741 -5.42157581 3.28419631 -4.125 2.4375 C-3.04605469 1.72400391 -3.04605469 1.72400391 -1.9453125 0.99609375 C-1.30335938 0.66738281 -0.66140625 0.33867188 0 0 Z " fill="#E9E9E9" transform="translate(192,71)"/>
<path d="M0 0 C2.5 1.375 2.5 1.375 5 3 C5 3.66 5 4.32 5 5 C2.03 5 -0.94 5 -4 5 C-2.68 3.35 -1.36 1.7 0 0 Z " fill="#F2F2F2" transform="translate(47,292)"/>
<path d="M0 0 C1.8125 0.125 1.8125 0.125 4 1 C5.75 4.0625 5.75 4.0625 7 7 C4.69 6.67 2.38 6.34 0 6 C0.33 5.01 0.66 4.02 1 3 C0.67 2.01 0.34 1.02 0 0 Z " fill="#121212" transform="translate(177,14)"/>
<path d="M0 0 C3.3 0 6.6 0 10 0 C10 0.66 10 1.32 10 2 C7.69 2.66 5.38 3.32 3 4 C2.67 3.34 2.34 2.68 2 2 C1.01 2 0.02 2 -1 2 C-0.67 1.34 -0.34 0.68 0 0 Z " fill="#ECECEC" transform="translate(130,0)"/>
<path d="M0 0 C1.32 0.66 2.64 1.32 4 2 C4 2.66 4 3.32 4 4 C4.66 4.33 5.32 4.66 6 5 C4.02 5.66 2.04 6.32 0 7 C0.33 5.35 0.66 3.7 1 2 C0.34 1.67 -0.32 1.34 -1 1 C-0.67 0.67 -0.34 0.34 0 0 Z " fill="#EEEEEE" transform="translate(109,73)"/>
<path d="M0 0 C3 3.75 3 3.75 3 6 C2.34 6 1.68 6 1 6 C0.67 6.99 0.34 7.98 0 9 C-0.99 8.01 -1.98 7.02 -3 6 C-2.01 4.02 -1.02 2.04 0 0 Z " fill="#0A0A0A" transform="translate(171,31)"/>
<path d="M0 0 C0.33 0.99 0.66 1.98 1 3 C0.01 3.495 0.01 3.495 -1 4 C-1.66 3.67 -2.32 3.34 -3 3 C-3.33 3.66 -3.66 4.32 -4 5 C-5.66666667 5 -7.33333333 5 -9 5 C-2.87096774 0 -2.87096774 0 0 0 Z " fill="#101010" transform="translate(56,34)"/>
<path d="M0 0 C-0.75 1.9375 -0.75 1.9375 -2 4 C-4.125 4.75 -4.125 4.75 -6 5 C-6.33 4.01 -6.66 3.02 -7 2 C-2.25 0 -2.25 0 0 0 Z " fill="#0D0D0D" transform="translate(56,290)"/>
<path d="M0 0 C0.99 0.33 1.98 0.66 3 1 C1.515 4.465 1.515 4.465 0 8 C-0.66 7.34 -1.32 6.68 -2 6 C-1.44444444 1.44444444 -1.44444444 1.44444444 0 0 Z " fill="#E4E4E4" transform="translate(115,16)"/>
<path d="M0 0 C3.37503669 1.1858237 5.64722731 2.27573689 8 5 C7.01 5.66 6.02 6.32 5 7 C3.35 4.69 1.7 2.38 0 0 Z " fill="#ECECEC" transform="translate(176,10)"/>
<path d="M0 0 C0.33 0.66 0.66 1.32 1 2 C3.32156597 2.40729228 5.6568787 2.74438677 8 3 C6.3125 4.1875 6.3125 4.1875 4 5 C1.25 3.625 1.25 3.625 -1 2 C-0.67 1.34 -0.34 0.68 0 0 Z " fill="#F1F1F1" transform="translate(176,227)"/>
<path d="M0 0 C0.33 0.66 0.66 1.32 1 2 C3.32156597 2.40729228 5.6568787 2.74438677 8 3 C6.3125 4.1875 6.3125 4.1875 4 5 C1.25 3.625 1.25 3.625 -1 2 C-0.67 1.34 -0.34 0.68 0 0 Z " fill="#F1F1F1" transform="translate(176,179)"/>
<path d="M0 0 C0.33 0.66 0.66 1.32 1 2 C3.32156597 2.40729228 5.6568787 2.74438677 8 3 C6.3125 4.1875 6.3125 4.1875 4 5 C1.25 3.625 1.25 3.625 -1 2 C-0.67 1.34 -0.34 0.68 0 0 Z " fill="#F1F1F1" transform="translate(176,131)"/>
<path d="M0 0 C1.32 0.66 2.64 1.32 4 2 C3.67 3.32 3.34 4.64 3 6 C1.68 5.01 0.36 4.02 -1 3 C-0.67 2.01 -0.34 1.02 0 0 Z " fill="#111111" transform="translate(106,67)"/>
</svg>
